
<svg xmlns="http://www.w3.org/2000/svg" version="1.1" xmlns:xlink="http://www.w3.org/1999/xlink" preserveAspectRatio="none" x="0px" y="0px" width="150px" height="150px" viewBox="0 0 150 150">
<defs>
<radialGradient id="Gradient_1" gradientUnits="userSpaceOnUse" cx="0" cy="0" r="33.05000000000001" fx="0" fy="0" gradientTransform="matrix( 0.9999999999999998, 0, 0, 0.9999999999999998, 371.05,428.4) " spreadMethod="pad">
<stop  offset="0%" stop-color="#00FFFF"/>

<stop  offset="100%" stop-color="#00B1B6"/>
</radialGradient>

<g id="scenes_materi_btn_res_bg_0_Layer0_0_FILL">
<path fill="#333333" stroke="none" d="
M 377.9 226.1
Q 391.4 226.1 400.95 235.65
L 435.65 201
Q 411.75 177.1 377.95 177.1 344.15 177.1 320.25 201
L 354.85 235.65
Q 364.4 226.1 377.9 226.1 Z"/>
</g>

<g id="scenes_materi_btn_res_btn_Mat_3_1_0_Layer0_0_STROKES_1_FILL">
<path fill="#FF66FF" stroke="none" d="
M -14.1 10.9
Q -14.43671875 10.5544921875 -14.95 10.55
L -20.95 10.55
Q -21.46328125 10.5544921875 -21.85 10.9 -22.1955078125 11.28671875 -22.2 11.8 -22.1955078125 12.31328125 -21.85 12.65 -21.46328125 13.0455078125 -20.95 13.05
L -14.95 13.05
Q -14.43671875 13.0455078125 -14.1 12.65 -13.7044921875 12.31328125 -13.7 11.8 -13.7044921875 11.28671875 -14.1 10.9
M -2.95 10.55
L -8.95 10.55
Q -9.46328125 10.5544921875 -9.85 10.9 -10.1955078125 11.28671875 -10.2 11.8 -10.1955078125 12.31328125 -9.85 12.65 -9.46328125 13.0455078125 -8.95 13.05
L -2.95 13.05
Q -2.43671875 13.0455078125 -2.1 12.65 -1.7044921875 12.31328125 -1.7 11.8 -1.7044921875 11.28671875 -2.1 10.9 -2.43671875 10.5544921875 -2.95 10.55
M 2.15 10.9
Q 1.8044921875 11.28671875 1.8 11.8 1.8044921875 12.31328125 2.15 12.65 2.53671875 13.0455078125 3.05 13.05
L 9.05 13.05
Q 9.56328125 13.0455078125 9.9 12.65 10.2955078125 12.31328125 10.3 11.8 10.2955078125 11.28671875 9.9 10.9 9.56328125 10.5544921875 9.05 10.55
L 3.05 10.55
Q 2.53671875 10.5544921875 2.15 10.9
M 22.3 11.8
Q 22.2955078125 11.28671875 21.9 10.9 21.56328125 10.5544921875 21.05 10.55
L 15.05 10.55
Q 14.53671875 10.5544921875 14.15 10.9 13.8044921875 11.28671875 13.8 11.8 13.8044921875 12.31328125 14.15 12.65 14.53671875 13.0455078125 15.05 13.05
L 21.05 13.05
Q 21.56328125 13.0455078125 21.9 12.65 22.2955078125 12.31328125 22.3 11.8
M 15.85 -14.4
Q 15.33671875 -14.3955078125 14.95 -14.05 14.6044921875 -13.66328125 14.6 -13.15 14.6044921875 -12.63671875 14.95 -12.3 15.33671875 -11.9044921875 15.85 -11.9
L 21.85 -11.9
Q 22.36328125 -11.9044921875 22.7 -12.3 23.0955078125 -12.63671875 23.1 -13.15 23.0955078125 -13.66328125 22.7 -14.05 22.36328125 -14.3955078125 21.85 -14.4
L 15.85 -14.4
M 11.1 -13.15
Q 11.0955078125 -13.66328125 10.7 -14.05 10.36328125 -14.3955078125 9.85 -14.4
L 3.85 -14.4
Q 3.33671875 -14.3955078125 2.95 -14.05 2.6044921875 -13.66328125 2.6 -13.15 2.6044921875 -12.63671875 2.95 -12.3 3.33671875 -11.9044921875 3.85 -11.9
L 9.85 -11.9
Q 10.36328125 -11.9044921875 10.7 -12.3 11.0955078125 -12.63671875 11.1 -13.15
M -9.05 -14.05
Q -9.3955078125 -13.66328125 -9.4 -13.15 -9.3955078125 -12.63671875 -9.05 -12.3 -8.66328125 -11.9044921875 -8.15 -11.9
L -2.15 -11.9
Q -1.63671875 -11.9044921875 -1.3 -12.3 -0.9044921875 -12.63671875 -0.9 -13.15 -0.9044921875 -13.66328125 -1.3 -14.05 -1.63671875 -14.3955078125 -2.15 -14.4
L -8.15 -14.4
Q -8.66328125 -14.3955078125 -9.05 -14.05
M -21.05 -14.05
Q -21.3955078125 -13.66328125 -21.4 -13.15 -21.3955078125 -12.63671875 -21.05 -12.3 -20.66328125 -11.9044921875 -20.15 -11.9
L -14.15 -11.9
Q -13.63671875 -11.9044921875 -13.3 -12.3 -12.9044921875 -12.63671875 -12.9 -13.15 -12.9044921875 -13.66328125 -13.3 -14.05 -13.63671875 -14.3955078125 -14.15 -14.4
L -20.15 -14.4
Q -20.66328125 -14.3955078125 -21.05 -14.05 Z"/>
</g>

<g id="Layer0_9_FILL">
<path fill="url(#Gradient_1)" stroke="none" d="
M 403.35 428.4
Q 403.35 415 393.9 405.55 384.45 396.1 371.05 396.1 357.65 396.1 348.2 405.55 338.75 415 338.75 428.4 338.75 441.8 348.2 451.25 357.65 460.7 371.05 460.7 384.45 460.7 393.9 451.25 403.35 441.8 403.35 428.4 Z"/>
</g>

<g id="scenes_materi_btn_res_btn_Mode_bg_0_Layer0_0_STROKES_1_FILL">
<path fill="#333333" stroke="none" d="
M 371.05 461.7
Q 372.4880859375 461.7013671875 373.85 461.6 374.2818359375 461.5666015625 374.55 461.25 374.82578125 460.936328125 374.8 460.5 374.766796875 460.1173828125 374.45 459.85 374.137109375 459.574609375 373.7 459.6 372.41171875 459.6986328125 371.05 459.7 369.5505859375 459.6974609375 368.1 459.55 367.6919921875 459.5107421875 367.35 459.75 367.04765625 460.0388671875 367 460.45 366.960546875 460.857421875 367.2 461.15 367.4892578125 461.501953125 367.9 461.55 369.44921875 461.70234375 371.05 461.7
M 385.75 456.5
Q 385.3775390625 456.366796875 385 456.55 382.3958984375 457.853515625 379.55 458.6 379.1419921875 458.7373046875 378.9 459.1 378.7171875 459.4556640625 378.8 459.85 378.9369140625 460.258203125 379.3 460.45 379.65546875 460.682421875 380.05 460.55 383.1041015625 459.7462890625 385.9 458.35 386.2693359375 458.1646484375 386.4 457.75 386.53359375 457.3771484375 386.35 457 386.165234375 456.6302734375 385.75 456.5
M 395.85 450.2
Q 395.8306640625 449.7826171875 395.5 449.5 395.2142578125 449.2251953125 394.8 449.25 394.3826171875 449.2705078125 394.1 449.55 393.67421875 450.0625 393.2 450.55 391.5984375 452.145703125 389.9 453.45 389.56328125 453.7099609375 389.5 454.1 389.446484375 454.5279296875 389.7 454.85 389.9595703125 455.1875 390.35 455.25 390.7771484375 455.303125 391.1 455.05 392.9013671875 453.654296875 394.6 451.95 395.1259765625 451.4373046875 395.6 450.9 395.874609375 450.6130859375 395.85 450.2
M 346.1 450.05
Q 346.089453125 450.4658203125 346.35 450.75 346.9375 451.38828125 347.5 451.95 349.1984375 453.654296875 351 455.05 351.3228515625 455.303125 351.7 455.25 352.140234375 455.1875 352.4 454.85 352.653515625 454.5279296875 352.6 454.1 352.53671875 453.7099609375 352.2 453.45 350.5013671875 452.145703125 348.9 450.55 348.3625 450.01171875 347.8 449.4 347.5521484375 449.1185546875 347.15 449.1 346.7341796875 449.08828125 346.4 449.35 346.1185546875 449.646875 346.1 450.05
M 355.75 457
Q 355.5662109375 457.378515625 355.7 457.75 355.8318359375 458.1658203125 356.2 458.35 358.9341796875 459.6953125 361.85 460.5 362.2806640625 460.6326171875 362.65 460.4 362.999609375 460.2216796875 363.1 459.8 363.2203125 459.41953125 363 459.05 362.821484375 458.6880859375 362.4 458.55 359.665625 457.8046875 357.1 456.55 356.720703125 456.3666015625 356.3 456.5 355.9337890625 456.6310546875 355.75 457
M 339.95 439.65
Q 339.77890625 440.02109375 339.9 440.4 341.003125 443.291796875 342.65 445.9 342.872265625 446.278515625 343.25 446.35 343.675390625 446.4693359375 344 446.25 344.3791015625 446.028125 344.45 445.6 344.56875 445.225 344.35 444.85 342.7966796875 442.408203125 341.75 439.7 341.6275390625 439.3171875 341.25 439.15 340.879296875 438.978515625 340.5 439.1 340.1177734375 439.271875 339.95 439.65
M 337.75 428.2
Q 337.75 428.3 337.75 428.4 337.7552734375 431.5404296875 338.25 434.45 338.3412109375 434.8833984375 338.65 435.1 339.01640625 435.355078125 339.4 435.25 339.8337890625 435.208984375 340.05 434.85 340.3048828125 434.533984375 340.2 434.1 339.74453125 431.3595703125 339.75 428.4 339.75 428.3 339.75 428.2 339.746484375 427.7892578125 339.45 427.5 339.1607421875 427.203515625 338.75 427.2 338.3392578125 427.203515625 338.05 427.5 337.753515625 427.7892578125 337.75 428.2
M 340.5 415.55
Q 340.1248046875 415.7396484375 339.95 416.1 338.841015625 418.970703125 338.25 422.05 338.1947265625 422.4822265625 338.4 422.8 338.6650390625 423.1580078125 339.05 423.2 339.4822265625 423.30546875 339.8 423.05 340.1578125 422.8349609375 340.2 422.4 340.758984375 419.5291015625 341.8 416.85 341.98359375 416.487109375 341.8 416.1 341.659765625 415.7244140625 341.25 415.55 340.88671875 415.4158203125 340.5 415.55
M 347.9 405.8
Q 347.6296875 405.5388671875 347.2 405.55 346.8115234375 405.56796875 346.5 405.85 344.3677734375 408.184375 342.7 410.7 342.494140625 411.0474609375 342.55 411.45 342.656640625 411.8509765625 343 412.05 343.3466796875 412.30625 343.75 412.2 344.1505859375 412.1423828125 344.35 411.8 345.9322265625 409.4154296875 347.95 407.2 348.26015625 406.9294921875 348.25 406.5 348.23203125 406.110546875 347.9 405.8
M 357.2 400.2
Q 357.5693359375 400.0146484375 357.7 399.6 357.83359375 399.2271484375 357.65 398.85 357.465234375 398.4802734375 357.05 398.35 356.6775390625 398.216796875 356.3 398.4 353.6216796875 399.7408203125 351.15 401.65 350.8130859375 401.9099609375 350.75 402.3 350.6966796875 402.727734375 350.95 403.05 351.2095703125 403.3875 351.6 403.45 352.0271484375 403.5029296875 352.35 403.25 354.6783203125 401.4591796875 357.2 400.2
M 401.6 439.15
Q 401.220703125 439.028515625 400.85 439.2 400.472265625 439.3671875 400.3 439.75 399.303125 442.458203125 397.75 444.9 397.5310546875 445.275 397.6 445.65 397.720703125 446.078125 398.05 446.3 398.4244140625 446.5193359375 398.8 446.4 399.2275390625 446.328515625 399.45 445.95 401.0966796875 443.341796875 402.15 440.45 402.32109375 440.07109375 402.15 439.7 401.9822265625 439.321875 401.6 439.15
M 404.35 428.4
Q 404.346484375 427.9892578125 404.05 427.7 403.7607421875 427.403515625 403.35 427.4 402.9392578125 427.403515625 402.65 427.7 402.353515625 427.9892578125 402.35 428.4 402.3556640625 431.409765625 401.85 434.2 401.7953125 434.6330078125 402 434.95 402.2662109375 435.308984375 402.65 435.35 403.0837890625 435.455078125 403.4 435.2 403.7583984375 434.984375 403.8 434.55 404.34453125 431.5904296875 404.35 428.4
M 402.3 416.75
Q 402.1775390625 416.3671875 401.8 416.2 401.429296875 416.028515625 401.05 416.15 400.6677734375 416.321875 400.5 416.7 400.32890625 417.07109375 400.45 417.45 401.4912109375 420.1658203125 401.95 423.05 402.040625 423.4697265625 402.35 423.7 402.7150390625 423.9423828125 403.1 423.85 403.5201171875 423.8095703125 403.75 423.45 403.9921875 423.1353515625 403.9 422.7 403.4087890625 419.634375 402.3 416.75
M 384.85 399.85
Q 384.9798828125 400.2509765625 385.35 400.45 387.858984375 401.746484375 390.15 403.55 390.508203125 403.83984375 390.9 403.8 391.326171875 403.751171875 391.55 403.4 391.840234375 403.0923828125 391.8 402.65 391.7505859375 402.2744140625 391.4 402 388.940625 400.066015625 386.25 398.65 385.8865234375 398.4791015625 385.5 398.6 385.1115234375 398.7287109375 384.9 399.1 384.7291015625 399.4625 384.85 399.85
M 395.9 406.2
Q 395.6177734375 405.920703125 395.2 405.9 394.7865234375 405.875 394.45 406.15 394.1697265625 406.43203125 394.15 406.85 394.1251953125 407.2623046875 394.4 407.55 396.3927734375 409.8029296875 397.9 412.2 398.121875 412.578515625 398.5 412.65 398.9248046875 412.76953125 399.25 412.55 399.6287109375 412.3287109375 399.7 411.9 399.81875 411.525390625 399.6 411.15 398.0072265625 408.596875 395.9 406.2
M 374.45 395.25
Q 374.042578125 395.2107421875 373.7 395.45 373.39765625 395.7388671875 373.35 396.15 373.3103515625 396.557421875 373.55 396.85 373.8388671875 397.2021484375 374.25 397.25 377.209375 397.5447265625 379.95 398.3 380.3806640625 398.4326171875 380.75 398.2 381.099609375 398.0216796875 381.2 397.6 381.3203125 397.21953125 381.1 396.85 380.921484375 396.4880859375 380.5 396.35 377.590234375 395.5552734375 374.45 395.25
M 369 395.45
Q 368.6845703125 395.17421875 368.25 395.2 365.0337890625 395.455078125 362.05 396.2 361.6546875 396.3365234375 361.45 396.7 361.230078125 397.0541015625 361.3 397.45 361.4361328125 397.84453125 361.8 398.05 362.155078125 398.26953125 362.55 398.15 365.366015625 397.4447265625 368.4 397.2 368.8341796875 397.1658203125 369.1 396.85 369.376171875 396.53515625 369.35 396.1 369.3162109375 395.71640625 369 395.45 Z"/>
</g>

<path id="Layer0_0_1_STROKES" stroke="#333333" stroke-width="3" stroke-linejoin="round" stroke-linecap="round" fill="none" d="
M 88.85 81.3
L 65.5 81.3"/>

<path id="scenes_materi_btn_res_btn_Mat_4_1_0_Layer0_0_1_STROKES" stroke="#FFCC00" stroke-width="2.5" stroke-linejoin="round" stroke-linecap="round" fill="none" d="
M 7.35 0.25
L 8.3 -3.6 12.65 -3.8
M 8.3 -3.6
Q 15 2.9 15.05 11.3
L 18.15 8.8
M 15.05 11.3
L 11.5 9.25
M -10.1 -7.8
Q -12.75 -10.45 -15.4 -8 -15.5 -7.9 -15.6 -7.8
L -24.75 1.35
Q -27.2 4 -24.6 6.65
L -21.25 10
Q -18.5 12.7 -15.8 10
L -6.8 1
Q -4.05 -1.75 -6.8 -4.5
L -10.1 -7.8 Z
M -13.85 -5.1
L -12.8 -6.2
M -9.95 -7.95
Q -6.95 -11.35 -5.95 -15.75
L 1.05 -8.75
Q -3 -7.9 -6.95 -4.95
L -9.95 -7.95 Z
M -24.75 1.35
L -25.95 -2.85 -20.15 -8.65 -15.4 -8
M -18.25 7.9
L -8.5 -1.8
M 21.05 15.15
L -14.75 15.15 10.2 -11.5"/>

<path id="scenes_materi_btn_res_btn_Mat_3_1_0_Layer0_0_1_STROKES" stroke="#FF66FF" stroke-width="2.5" stroke-linejoin="round" stroke-linecap="round" fill="none" d="
M 12.4 -6.15
L 15.05 -9.1 17.65 -6.15
M 17.65 5.3
L 15.05 7.95 12.4 5.5
M 15.05 -9.1
L 15.05 7.95
M -8.75 -1.5
Q -6.75 -1.55 -5.3 -3.15 -3.85 -4.85 -3.7 -6.95 -3.55 -9.1 -5.1 -10.65 -6.65 -12.15 -8.75 -12.15 -10.9 -12.15 -12.45 -10.65 -14 -9.1 -14 -6.95
L -14 -6.4
Q -13.3 -4.05 -12 -2.75 -10.75 -1.5 -8.75 -1.5 Z
M -7.25 -7.6
L -6.55 -7.6
M -10.7 -7.6
L -10 -7.6
M -0.6 11.8
L -0.6 3
Q -0.6 -1 -4.65 -1
L -12.45 -1
Q -16.55 -1 -16.55 3
L -16.55 11.8
M -4.45 3.85
L -4.45 10.8
M -12.85 3.95
L -12.85 10.95"/>

<path id="scenes_materi_btn_res_btn_Mat_2_1_0_Layer0_0_1_STROKES" stroke="#00FFFF" stroke-width="2.5" stroke-linejoin="round" stroke-linecap="round" fill="none" d="
M 3.85 -15.05
L 8.25 -14.65 8.35 -10.6
M 3.65 -10.85
L 8.25 -14.65
M 21.25 -1.65
L 18.65 -4.4 21.2 -7.6
M 16.3 -2
Q 15.05 0.2 15.95 2.25 16.8 4.35 18.8 5.1 20.85 5.9 22.85 5.05 24.9 4.25 25.65 2.2 26.45 0.2 25.6 -1.75 24.75 -3.7 22.65 -4.5 20.65 -5.25 18.65 -4.4
M 3.85 12.9
L 8.25 12.5 3.65 8.8
M 8.25 12.5
L 8.35 8.55
M 8.6 4.65
Q 5.05 2.3 -0.05 1.6
L -0.05 -2.8
Q 4.65 -3.1 8.6 -5.6
L 8.6 4.65 Z
M -19.65 -10.45
L -24 -14.25 -24.1 -10.2
M -5 -3.6
L -3.5 -3.6
M -17.8 -6.85
L -15.55 -10.85 -7.1 -10.85 -4.05 -6.85
Q -0.25 -6.7 -0.25 -2.8
L -0.25 2.05
Q -0.25 6.05 -4.3 6.05
L -17.55 6.05
Q -21.6 6.05 -21.6 2.05
L -21.6 -2.8
Q -21.6 -6.7 -17.8 -6.85
L -4.3 -6.85
Q -4.15 -6.85 -4.05 -6.85
M -24 -14.25
L -19.85 -14.65
M -19.8 13.5
L -23.9 13.05 -24 9.15
M -19.65 9.4
L -23.9 13.05
M -17.8 2.75
L -3.55 2.75"/>

<path id="scenes_materi_btn_res_btn_Mat_1_1_0_Layer0_0_1_STROKES" stroke="#00FF66" stroke-width="2.5" stroke-linejoin="round" stroke-linecap="round" fill="none" d="
M 6.45 -7.15
L 7.95 -7.15
M 6.45 -1.9
L 7.95 -1.9
M 12.95 -6.9
L 26.95 -6.9
M 12.95 -1.65
L 26.95 -1.65
M 6.45 9.1
L 7.95 9.1
M 6.45 3.85
L 7.95 3.85
M 12.95 9.35
L 26.95 9.35
M 12.95 4.1
L 26.95 4.1
M -23.7 -9.05
Q -24.1 -9 -24.45 -8.9 -27.55 -8.1 -27.55 -4.15
L -27.55 5.85
Q -27.55 10.85 -22.55 10.85
L -4.55 10.85
Q 0.45 10.85 0.45 5.85
L 0.45 -4.15
Q 0.45 -9.15 -4.55 -9.15
L -7.3 -10.15
Q -7.3 -10.95 -7.9 -11.55 -8.35 -12 -9.4 -12.6
L -17.45 -12.6
Q -18.75 -12 -19.2 -11.55 -19.8 -10.95 -19.8 -10.15
L -22.55 -9.15
Q -23.15 -9.15 -23.7 -9.05
L -23.7 -11.1
M -13.25 -2.3
Q -11.7 -1.85 -10.75 -0.45
M -18.5 -4.1
Q -20.55 -2.05 -20.55 0.85 -20.55 3.75 -18.5 5.8 -16.45 7.85 -13.55 7.85 -10.65 7.85 -8.6 5.8 -6.55 3.75 -6.55 0.85 -6.55 -2.05 -8.6 -4.1 -10.65 -6.15 -13.55 -6.15 -16.45 -6.15 -18.5 -4.1 Z
M -5.35 -5.15
L -3.45 -5.15"/>

<path id="Layer0_9_1_STROKES" stroke="#333333" stroke-width="3" stroke-linejoin="round" stroke-linecap="round" fill="none" d="
M 103.99473495483403 74.98568725585938
Q 103.99473495483403 87.01677551269535 95.51012420654297 95.50138626098635 87.02551345825196 103.98599700927736 74.99442520141605 103.98599700927736 62.96333694458008 103.98599700927736 54.478726196289074 95.50138626098635 45.99411544799807 87.01677551269535 45.99411544799807 74.98568725585938 45.99411544799807 62.95459899902346 54.478726196289074 54.469988250732456 62.96333694458008 45.98537750244145 74.99442520141605 45.98537750244145 87.02551345825196 45.98537750244145 95.51012420654297 54.469988250732456 103.99473495483403 62.95459899902346 103.99473495483403 74.98568725585938 Z"/>

<path id="scenes_materi_btn_ico2_0_Layer0_0_1_STROKES" stroke="#333333" stroke-width="3" stroke-linejoin="round" stroke-linecap="round" fill="none" d="
M 4.6 -11.05
L 8 -9.1
M -12.95 -1.9
L 13 -8.8 12.15 -11.85
Q 11.8 -13.1 10.7 -13.75 9.55 -14.4 8.3 -14.1
L -11.6 -8.75
Q -12.85 -8.4 -13.45 -7.3 -14.1 -6.2 -13.75 -4.9
L -12.95 -1.9 13.85 -1.9 13.85 0.8 13.85 9.75
Q 13.85 14.25 9.4 14.25
L -8.5 14.25
Q -13 14.25 -13 9.75
L -13 0.8 -13 -1.9 -12.95 -1.9 Z
M -9.7 -7.05
L -6.3 -5.05
M -4.05 6.65
L -4.05 10.6
M 4.9 6.65
L 4.9 10.6
M -13 0.8
L 13.85 0.8
M -8.95 6.4
L 9.85 6.4
M -2.55 -9.25
L 0.85 -7.3"/>
</defs>

<g transform="matrix( 1, 0, 0, 1, 0,0) ">
<use xlink:href="#Layer0_0_1_STROKES"/>
</g>

<g id="bg" transform="matrix( 0.00006103515625, -0.9999847412109375, 0.9999847412109375, 0.00006103515625, 75,75) ">
<g transform="matrix( 0.919036865234375, 0, 0, 0.919219970703125, -347.35,-237.8) ">
<use xlink:href="#scenes_materi_btn_res_bg_0_Layer0_0_FILL"/>
</g>
</g>

<g id="_1" transform="matrix( -0.00006103515625, 0.9999847412109375, -0.9999847412109375, -0.00006103515625, 24,74.95) ">
<g transform="matrix( 1, 0, 0, 1, 0,0) ">
<use xlink:href="#scenes_materi_btn_res_btn_Mat_4_1_0_Layer0_0_1_STROKES"/>
</g>
</g>

<g id="bg_FL" transform="matrix( -1, 0, 0, -1, 75,75) ">
<g transform="matrix( 0.919036865234375, 0, 0, 0.919219970703125, -347.35,-237.8) ">
<use xlink:href="#scenes_materi_btn_res_bg_0_Layer0_0_FILL"/>
</g>
</g>

<g id="_1_FL" transform="matrix( 1, 0, 0, 1, 75,125.1) ">
<g transform="matrix( 1, 0, 0, 1, 0,0) ">
<use xlink:href="#scenes_materi_btn_res_btn_Mat_3_1_0_Layer0_0_1_STROKES"/>

<use xlink:href="#scenes_materi_btn_res_btn_Mat_3_1_0_Layer0_0_STROKES_1_FILL"/>
</g>
</g>

<g id="bg_FL_FL" transform="matrix( 0.000091552734375, 1, -1, 0.000091552734375, 75,75) ">
<g transform="matrix( 0.919036865234375, 0, 0, 0.919219970703125, -347.35,-237.8) ">
<use xlink:href="#scenes_materi_btn_res_bg_0_Layer0_0_FILL"/>
</g>
</g>

<g id="_1_FL_FL" transform="matrix( 0.000091552734375, 1, -1, 0.000091552734375, 125,74.95) ">
<g transform="matrix( 1, 0, 0, 1, 0,0) ">
<use xlink:href="#scenes_materi_btn_res_btn_Mat_2_1_0_Layer0_0_1_STROKES"/>
</g>
</g>

<g id="bg_FL_FL_FL" transform="matrix( 1, 0, 0, 1, 75,75) ">
<g transform="matrix( 0.919036865234375, 0, 0, 0.919219970703125, -347.35,-237.8) ">
<use xlink:href="#scenes_materi_btn_res_bg_0_Layer0_0_FILL"/>
</g>
</g>

<g id="_1_FL_FL_FL" transform="matrix( 1, 0, 0, 1, 75,25) ">
<g transform="matrix( 1, 0, 0, 1, 0,0) ">
<use xlink:href="#scenes_materi_btn_res_btn_Mat_1_1_0_Layer0_0_1_STROKES"/>
</g>
</g>

<g transform="matrix( 0.8978424072265625, 0, 0, 0.8978424072265625, -258.15,-309.65) ">
<use xlink:href="#Layer0_9_FILL"/>

<use xlink:href="#Layer0_9_1_STROKES" transform="matrix( 1.11376953125, 0, 0, 1.11376953125, 287.5,344.85) "/>
</g>

<g id="bg_FL_FL_FL_FL" transform="matrix( 1, 0, 0, 1, 75,75) ">
<g transform="matrix( 0.7740020751953125, 0, 0, 0.7740020751953125, -287.2,-331.6) ">
<use xlink:href="#scenes_materi_btn_res_btn_Mode_bg_0_Layer0_0_STROKES_1_FILL"/>
</g>
</g>

<g id="mat" transform="matrix( 1, 0, 0, 1, 75,75) ">
<g transform="matrix( 1, 0, 0, 1, 0,0) ">
<use xlink:href="#scenes_materi_btn_ico2_0_Layer0_0_1_STROKES"/>
</g>
</g>
</svg>
