<?xml version="1.0" encoding="utf-8"?>
<!-- Generator: Adobe Illustrator 22.0.0, SVG Export Plug-In . SVG Version: 6.00 Build 0)  -->
<svg version="1.1" id="Layer_1" xmlns="http://www.w3.org/2000/svg" xmlns:xlink="http://www.w3.org/1999/xlink" x="0px" y="0px"
	 viewBox="0 0 512 512" style="enable-background:new 0 0 512 512;" xml:space="preserve">
<style type="text/css">
	.st0{fill:#666666;}
</style>
<g id="Layer_x0020_1">
	<g id="AdminAvatar">
		<path id="Badan" class="st0" d="M358.2,283.9l-40.9-10.3c17.4-15.4,31.5-36.6,41-59.9c13.3-2.9,25.4-14,27.4-38.3
			c1.9-22.9-5.1-33.1-14.5-37.6c-0.1-2.7,14.9-79.7-39.9-99.5c-6.2-9.5-48.4-67-125-20.3c-11.2,6.8-29,20.3-38.5,33.9
			C154,69.2,144.8,96,143.2,137c-10.2,4-18.2,14-16.2,38.3c2.1,25.1,15,36.1,28.8,38.6c9.3,23.2,23.2,44.2,40.4,59.5l-41.6,10.3
			C98.2,297.8,58.7,348.1,58.7,406v69.3c0,19.7,16.4,36.5,36.1,36.5h323.9c19.7,0,34.4-16.9,34.4-36.5V406
			C453.2,348.2,414.5,297.9,358.2,283.9L358.2,283.9L358.2,283.9z M165,149.7c0-7.5,0.2-14.5,0.7-21c72,2.4,114.8-26.7,138.3-52
			c30.1,30,40.9,70.7,44.4,90.1c-7,53.3-45,109.9-91.1,109.9C206.2,276.6,165,207.1,165,149.7L165,149.7L165,149.7z M431.8,475.5
			c0,7.6-5.4,14.2-13,14.2h-31.7v-29.5c0-3-2.8-5.5-5.8-5.5s-5.8,2.5-5.8,5.5v29.5h-74.3l-31-124.4c9.3-0.3,16-8.9,13.8-18l-6-24.5
			c-1.6-6.6-7.5-11-14.2-11h-14.1c-6.8,0-12.6,4.4-14.2,11l-5.9,24.5c-2.2,9,4.6,17.6,13.8,17.9l-30.9,124.4h-76.1v-29.5
			c0-3-2.3-5.5-5.3-5.5s-5.3,2.5-5.3,5.5v29.5H94.9c-7.6,0-13.8-6.6-13.8-14.2v-69.3c0-47.9,32.5-89.4,79-101l60.4-15.1
			c11.4,5.5,23.7,8.5,36.6,8.5c12.6,0,24.6-3,35.8-8.5l60.1,15c46.5,11.6,78.7,53.2,78.7,101L431.8,475.5L431.8,475.5z"/>
		<path id="Tisu" class="st0" d="M170.2,404.1c-5.7-6.2-15.6-6.2-21.3,0L134,420.2c-3.6,3.9-0.8,10.2,4.5,10.2h42.1
			c5.3,0,8.1-6.3,4.5-10.2L170.2,404.1L170.2,404.1z"/>
		<path id="KacaMata" class="st0" d="M250.9,177.8h11c1.8,16.5,15.8,29.1,32.7,29.1c18.1,0,32.9-14.7,32.9-32.8
			c0-21-19-20.9-32.9-20.9c-12,0-27.9-0.7-31.9,13.9h-12.5c-4-14.6-19.9-13.9-31.9-13.9c-13.9,0-32.9-0.1-32.9,20.9
			c0,18.1,14.8,32.9,32.9,32.9C235.2,207,249.1,194.3,250.9,177.8L250.9,177.8z M294.6,164c18.2,0,21.9,1.7,21.9,10
			c0,12.1-9.8,21.9-21.9,21.9s-21.9-9.8-21.9-21.9C272.7,165.7,276.4,164,294.6,164z M196.4,174c0-8.3,3.7-10,21.9-10
			s21.9,1.7,21.9,10c0,12.1-9.8,21.9-21.9,21.9S196.4,186.1,196.4,174z"/>
	</g>
</g>
</svg>
