<?xml version="1.0" encoding="utf-8"?>
<!-- Generator: Adobe Illustrator 22.0.0, SVG Export Plug-In . SVG Version: 6.00 Build 0)  -->
<svg version="1.1" id="Layer_2" xmlns="http://www.w3.org/2000/svg" xmlns:xlink="http://www.w3.org/1999/xlink" x="0px" y="0px"
	 viewBox="0 0 512 512" style="enable-background:new 0 0 512 512;" xml:space="preserve">
<style type="text/css">
	.st0{fill:#C27B58;}
	.st1{fill:#B3F4FF;}
	.st2{fill:#9F6459;}
	.st3{fill:#7E5C62;}
	.st4{fill:#53DCFF;}
</style>
<g>
	<path class="st0" d="M237.3,338.8l112.9-112.9c9.3-9.3,24.6-9.3,33.9,0l113,113L237.3,338.8z"/>
	<path class="st1" d="M318.3,257.8l31.9-31.9c9.3-9.3,24.6-9.3,33.9,0l27.9,27.9c0,0-20.7,29.1-28.5,29.1s-14-15.7-18.4-12.8
		c-4.3,2.9-11.4,8.7-20.1,8.7S318.3,257.8,318.3,257.8z"/>
	<path class="st2" d="M63,338.5l170.2-173.5c10.4-10.4,27.5-10.4,37.9,0l174.5,173.4L63,338.5z"/>
	<path class="st1" d="M214.8,251.5c-16.5,0-39.6-27.4-39.6-27.4l58-59.1c10.4-10.4,27.5-10.4,37.9,0l42.7,42.4
		c0,0-22.1,31.9-32.3,30.2c-11.7-2-18.4-17-27.2-16.5C249.1,221.4,229.4,251.5,214.8,251.5z"/>
	<path class="st3" d="M11.8,338.5l140.7-140.7c10.4-10.4,27.5-10.4,37.9,0L331,338.5H11.8z"/>
	<path class="st4" d="M172.6,253.2c-7.5,0-9.2,10.2-25.8,9.4c-15-0.7-33.5-25.6-33.5-25.6l39.5-39.2c10.4-10.4,27.5-10.4,37.9,0
		l55.5,55.5c0,0-14.7,25.6-36.3,25.6C193.4,279,183.3,253.1,172.6,253.2z"/>
	<path class="st3" d="M507.6,354.9H4.4c-2.4,0-4.4-2-4.4-4.4l0-7.7c0-2.4,2-4.4,4.4-4.4h503.3c2.4,0,4.4,2,4.4,4.4v7.7
		C512,352.9,510,354.9,507.6,354.9z"/>
</g>
</svg>
