<?xml version="1.0" encoding="utf-8"?>
<!-- Generator: Adobe Illustrator 22.0.0, SVG Export Plug-In . SVG Version: 6.00 Build 0)  -->
<svg version="1.1" id="Layer_3" xmlns="http://www.w3.org/2000/svg" xmlns:xlink="http://www.w3.org/1999/xlink" x="0px" y="0px"
	 viewBox="0 0 512 512" style="enable-background:new 0 0 512 512;" xml:space="preserve">
<style type="text/css">
	.st0{fill:#FF4F19;}
	.st1{fill:#FF9600;}
	.st2{fill:#FFD200;}
	.st3{fill:#FFFFFF;}
	.st4{fill:#F24B18;}
</style>
<g>
	<rect x="231.5" y="373.5" class="st0" width="48.5" height="74.9"/>
	<path class="st1" d="M256.2,512h-65.3c-22.5,0-22.5,0-22.5-22.5v-18.7c0-12.4,10.1-22.5,22.5-22.5H256L256.2,512z"/>
	<path class="st2" d="M321.5,512H256l-0.2-63.7h65.7c12.4,0,22.5,10.1,22.5,22.5v18.7C344,512,344,512,321.5,512z"/>
	<path class="st1" d="M120.3,296.2c-2.7,0-5.4-0.7-7.8-2.2c-2.5-1.5-61.5-38.3-89.1-99C-4.1,134.7,2.8,73.8,3.1,71.2
		C4,63.7,10.4,58,18,58h94.5c8.3,0,15,6.7,15,15s-6.7,15-15,15H32.2c-0.3,19.5,1.7,57.6,18.5,94.6c23.8,52.4,76.9,85.5,77.5,85.8
		c7.1,4.3,9.3,13.6,4.9,20.6C130.2,293.7,125.3,296.2,120.3,296.2z"/>
	<path class="st1" d="M391.7,296.3c2.7,0,5.4-0.7,7.8-2.2c2.5-1.5,61.5-38.2,89.1-98.9C516.1,134.9,509.3,74,509,71.4
		c-0.9-7.5-7.3-13.2-14.9-13.2l-94.5-0.1c-8.3,0-15,6.7-15,15c0,8.3,6.7,15,15,15l80.3,0.1c0.3,19.5-1.7,57.6-18.5,94.6
		c-23.9,52.4-77,85.4-77.5,85.8c-7.1,4.3-9.3,13.6-4.9,20.6C381.7,293.8,386.6,296.3,391.7,296.3z"/>
	<path class="st2" d="M259.3,375h-3.6V32.5h143.8L399,235.3C399,312.1,336.1,375,259.3,375z"/>
	<path class="st1" d="M255.8,375h-3.6c-76.8,0-139.7-62.9-139.7-139.7V32.5h143.3V375z"/>
	<path class="st3" d="M256.1,103c14.3,0,27.6,56.1,27.6,56.1s57.2-6.6,61.9,9c4.7,15.6-44.8,43.7-44.8,43.7s23,54.8,10.6,61.7
		c-12.4,6.9-55.4-29.1-55.4-29.1L256.1,103z"/>
	<path class="st2" d="M256.1,103L256,244.3c0,0-45.4,37.2-55.4,29.1c-10-8.1,10.6-61.7,10.6-61.7s-48.4-28.2-44.8-43.7
		c3.6-15.4,61.9-9,61.9-9S241.8,103,256.1,103z"/>
	<path class="st4" d="M399.5,32.5h-287c-8.9,0-16.2-7.3-16.2-16.2v0c0-8.9,7.3-16.2,16.2-16.2l287,0c8.9,0,16.2,7.3,16.2,16.2v0
		C415.8,25.2,408.5,32.5,399.5,32.5z"/>
</g>
</svg>
