<?xml version="1.0" encoding="utf-8"?>
<!-- Generator: Adobe Illustrator 22.0.0, SVG Export Plug-In . SVG Version: 6.00 Build 0)  -->
<svg version="1.1" id="Layer_2" xmlns="http://www.w3.org/2000/svg" xmlns:xlink="http://www.w3.org/1999/xlink" x="0px" y="0px"
	 viewBox="0 0 512 512" style="enable-background:new 0 0 512 512;" xml:space="preserve">
<style type="text/css">
	.st0{fill:#EFF2FA;}
	.st1{fill:none;stroke:#E2C4A2;stroke-width:27;stroke-miterlimit:10;}
	.st2{fill:none;stroke:#C7CFE2;stroke-width:17;stroke-miterlimit:10;}
	.st3{fill:#C7CFE2;}
	.st4{fill:#AFB9D2;}
	.st5{fill:#82889D;}
</style>
<g>
	<path class="st0" d="M416.2,500.5H96.1c-6.6,0-12-5.4-12-12v-428c0-6.6,5.4-12,12-12h320.1c6.6,0,12,5.4,12,12v428
		C428.2,495.1,422.8,500.5,416.2,500.5z"/>
	<path class="st1" d="M401.3,499H110.9c-14.8,0-26.8-12.1-26.8-26.8V75.3c0-14.8,12.1-26.8,26.8-26.8h290.4
		c14.8,0,26.8,12.1,26.8,26.8v396.8C428.2,486.9,416.1,499,401.3,499z"/>
	<g>
		<path class="st2" d="M256,8.9L256,8.9c-9.9,0-18,8.1-18,18v0c0,9.9,8.1,18,18,18h0c9.9,0,18-8.1,18-18v0C274,17,265.9,8.9,256,8.9
			z"/>
		<path class="st3" d="M310.1,79H201.9c-9.3,0-16.9-7.6-16.9-16.9v-9.8c0-9.3,7.6-16.9,16.9-16.9h108.3c9.3,0,16.9,7.6,16.9,16.9
			v9.8C327,71.4,319.4,79,310.1,79z"/>
		<path class="st4" d="M326.9,79H185.1c-4.7,0-8.5-3.8-8.5-8.5v0c0-4.7,3.8-8.5,8.5-8.5h141.8c4.7,0,8.5,3.8,8.5,8.5v0
			C335.4,75.2,331.6,79,326.9,79z"/>
	</g>
	<g>
		<path class="st5" d="M167.6,202.9c-2.3,0-4.6-0.9-6.4-2.6l-26.6-26.6c-3.5-3.5-3.5-9.2,0-12.7c3.5-3.5,9.2-3.5,12.7,0l20.2,20.2
			l37.9-37.6c3.5-3.5,9.2-3.5,12.7,0c3.5,3.5,3.5,9.2,0,12.7l-44.3,43.9C172.2,202,169.9,202.9,167.6,202.9z"/>
		<path class="st3" d="M317.7,167.3h-71c-4.8,0-8.7-3.9-8.7-8.7v0c0-4.8,3.9-8.7,8.7-8.7h71c4.8,0,8.7,3.9,8.7,8.7v0
			C326.3,163.4,322.4,167.3,317.7,167.3z"/>
		<path class="st3" d="M361.3,202.6H246.7c-4.8,0-8.7-3.9-8.7-8.7v0c0-4.8,3.9-8.7,8.7-8.7h114.7c4.8,0,8.7,3.9,8.7,8.7v0
			C370,198.7,366.1,202.6,361.3,202.6z"/>
	</g>
	<g>
		<path class="st5" d="M167.6,309.4c-2.3,0-4.6-0.9-6.4-2.6l-26.6-26.6c-3.5-3.5-3.5-9.2,0-12.7c3.5-3.5,9.2-3.5,12.7,0l20.2,20.2
			l37.9-37.6c3.5-3.5,9.2-3.5,12.7,0c3.5,3.5,3.5,9.2,0,12.7l-44.3,43.9C172.2,308.5,169.9,309.4,167.6,309.4z"/>
		<path class="st3" d="M317.7,273.8h-71c-4.8,0-8.7-3.9-8.7-8.7v0c0-4.8,3.9-8.7,8.7-8.7h71c4.8,0,8.7,3.9,8.7,8.7v0
			C326.3,269.9,322.4,273.8,317.7,273.8z"/>
		<path class="st3" d="M361.3,309.1H246.7c-4.8,0-8.7-3.9-8.7-8.7v0c0-4.8,3.9-8.7,8.7-8.7h114.7c4.8,0,8.7,3.9,8.7,8.7v0
			C370,305.2,366.1,309.1,361.3,309.1z"/>
	</g>
	<g>
		<path class="st5" d="M167.6,414.4c-2.3,0-4.6-0.9-6.4-2.6l-26.6-26.6c-3.5-3.5-3.5-9.2,0-12.7c3.5-3.5,9.2-3.5,12.7,0l20.2,20.2
			l37.9-37.6c3.5-3.5,9.2-3.5,12.7,0c3.5,3.5,3.5,9.2,0,12.7l-44.3,43.9C172.2,413.5,169.9,414.4,167.6,414.4z"/>
		<path class="st3" d="M317.7,378.8h-71c-4.8,0-8.7-3.9-8.7-8.7v0c0-4.8,3.9-8.7,8.7-8.7h71c4.8,0,8.7,3.9,8.7,8.7v0
			C326.3,374.9,322.4,378.8,317.7,378.8z"/>
		<path class="st3" d="M361.3,414.1H246.7c-4.8,0-8.7-3.9-8.7-8.7v0c0-4.8,3.9-8.7,8.7-8.7h114.7c4.8,0,8.7,3.9,8.7,8.7v0
			C370,410.2,366.1,414.1,361.3,414.1z"/>
	</g>
</g>
</svg>
